# xmcd
#
# Track frame offsets:
#	183
#	14870
#	27578
#	41855
#	53698
#	66790
#	77035
#	100045
#	114643
#	132815
#	142523
#	155295
#	167318
#	187210
#	203943
#	217428
#
# Disc length: 3034
#
# Revision: 1
# Processed by: cddbd v1.5.1PL0 Copyright (c) Steve Scherf et al.
# Submitted via: dBpowerAMP V4.0
# Normalized: r0:DSETVAR1,TDELIM( - )
#
DISCID=e50bd810
DTITLE=Various Artist - country giants
DYEAR=1900
DGENRE=
TTITLE0=Freddy Weller - Games People play
TTITLE1=Tammy Wynette - Stand by your man
TTITLE2=Hoyt Axton - Evangelina
TTITLE3=Lynn Anderson - Rose Garden
TTITLE4=Johnny Tillotson - Let il be me
TTITLE5=Porter Wagoner - Louiana Saturday Night
TTITLE6=Mr Bojangles - Nitty gritty dirt band
TTITLE7=Jeanny c. Riley - Harper Valley p.t.a.
TTITLE8=Ed Bruce - Mama don't let your babies grow up to be cow-boys
TTITLE9=Freddy Fender - Before the next teardrop falls
TTITLE10=Tammy Wynette - D.V.I.V.O.R.S.E
TTITLE11=Mel Tillis - Ruby don't take love to town
TTITLE12=The Osmonds - He ain't heavy he's my brother
TTITLE13=Tanya Tucker - The night they drove ole dixie down
TTITLE14=Charlie Rich - The most beautiful girl
TTITLE15=Danny Davis and The Nashville Brass - Orange Blossom Special
EXTD=
EXTT0=
EXTT1=
EXTT2=
EXTT3=
EXTT4=
EXTT5=
EXTT6=
EXTT7=
EXTT8=
EXTT9=
EXTT10=
EXTT11=
EXTT12=
EXTT13=
EXTT14=
EXTT15=
PLAYORDER=
